<?xml version="1.0" encoding="utf-8"?>
<!-- Generator: Adobe Illustrator 21.1.0, SVG Export Plug-In . SVG Version: 6.00 Build 0)  -->
<svg version="1.1" id="Layer_1" xmlns="http://www.w3.org/2000/svg" xmlns:xlink="http://www.w3.org/1999/xlink" x="0px" y="0px"
	 viewBox="0 0 36 36" style="enable-background:new 0 0 36 36;" xml:space="preserve">
<style type="text/css">
	.st0{fill:#EC135C;}
	.st1{fill:none;}
	.st2{fill:#FFFFFF;}
	.st3{fill:#F40058;}
</style>
<g>
	<g>
		<g id="XMLID_40_">
			<g>
				<path class="st0" d="M16.7,19.8L16,21l-1.4-1.2L12.9,24c0,0-0.3,0.8-1.2,0.8c0,0-1.2,0-1.3-1.3v-6.4c0,0,0-1,1.1-1.2
					c0,0,0.7-0.2,1.5,0.7L16.7,19.8z"/>
			</g>
		</g>
		<g id="XMLID_39_">
			<g>
				<path class="st0" d="M16,21l0.7-1.2l1.4,1.2l1.7-4.2c0,0,0.3-0.8,1.2-0.8c0,0,1.2,0,1.3,1.3v6.4c0,0,0,1-1.1,1.2
					c0,0-0.7,0.2-1.5-0.7L16,21z"/>
			</g>
		</g>
	</g>
</g>
<g>
	<path class="st1" d="M1.1,10.2v17.3c0,2.1,1.7,3.9,3.9,3.9h22.7c2.1,0,3.9-1.7,3.9-3.9V13h-5.2V6.3H5C2.8,6.3,1.1,8.1,1.1,10.2z
		 M21,12.9c0.7,0,1.3,0.6,1.3,1.3s-0.6,1.3-1.3,1.3c-0.7,0-1.3-0.6-1.3-1.3C19.7,13.4,20.3,12.9,21,12.9z M11.7,12.9
		c0.7,0,1.3,0.6,1.3,1.3s-0.6,1.3-1.3,1.3s-1.3-0.6-1.3-1.3C10.4,13.4,11,12.9,11.7,12.9z"/>
	<path class="st2" d="M31.6,27.5c0,2.1-1.7,3.9-3.9,3.9H5c-2.1,0-3.9-1.7-3.9-3.9V10.2c0-2.1,1.7-3.9,3.9-3.9h21.4V5.2H5
		c-2.7,0-5,2.2-5,5v17.3c0,2.7,2.2,5,5,5h22.7c2.7,0,5-2.2,5-5V13h-1.1V27.5z"/>
	<path class="st2" d="M11.1,4.2h10.4c0.6,0,1.1-0.5,1.1-1.1S22,2,21.5,2H11.1C10.5,2,10,2.5,10,3.1S10.5,4.2,11.1,4.2z"/>
	<circle class="st0" cx="11.7" cy="14.1" r="1.3"/>
	<circle class="st0" cx="21" cy="14.1" r="1.3"/>
</g>
<path class="st3" d="M35.3,5.8h-3v-3c0-0.3-0.3-0.6-0.6-0.6s-0.6,0.3-0.6,0.6v3h-3c-0.3,0-0.6,0.3-0.6,0.6c0,0.3,0.3,0.6,0.6,0.6h3
	v3c0,0.3,0.3,0.6,0.6,0.6s0.6-0.3,0.6-0.6V7h3c0.3,0,0.6-0.3,0.6-0.6C35.9,6,35.6,5.8,35.3,5.8z"/>
</svg>
