<?xml version="1.0" encoding="utf-8"?>
<!-- Generator: Adobe Illustrator 21.1.0, SVG Export Plug-In . SVG Version: 6.00 Build 0)  -->
<svg version="1.1" id="Layer_1" xmlns="http://www.w3.org/2000/svg" xmlns:xlink="http://www.w3.org/1999/xlink" x="0px" y="0px"
	 viewBox="0 0 36 36" style="enable-background:new 0 0 36 36;" xml:space="preserve">
<style type="text/css">
	.st0{fill:#131C2F;}
	.st1{fill:#EE045A;}
</style>
<path class="st0" d="M9.4,30.8c3.5,0,6.8,0,10.3,0c0,0.5,0,0.9,0,1.4c-4.2,0-8.3,0-12.4,0c0.3-0.9,0.7-1.8,0.8-2.8
	c0.3-1.9,0-3.7-1.2-5.3c-0.1-0.2-0.3-0.4-0.5-0.5c-0.9-0.4-0.8-1.1-0.5-1.8c0.2-0.6,0.4-1.1,0.6-1.7c0.1-0.3,0.2-0.4,0.5-0.4
	c0.2,0,0.5,0,0.7,0c0.9-0.1,1.6-0.8,1.6-1.8c-1.1,0-2.2,0-3.3,0c-0.1,0-0.3,0.2-0.3,0.3c-0.6,1.3-1.1,2.5-1.7,3.8
	C4,22.2,4,22.4,4,22.6c0,3,0,6,0,8.9c0,0.2,0,0.4,0,0.7c-0.5,0-0.9,0-1.4,0c0-0.2,0-0.4,0-0.6c0-3.1,0-6.3,0-9.4
	c0-0.3,0.1-0.6,0.2-0.9C3.3,20,4,18.6,4.6,17.2c0.2-0.5,0.4-1,1.2-0.7c0-0.3,0-0.5,0-0.7c0-4.5,0-9,0-13.5C5.8,0.7,6.5,0,8,0
	c6.5,0,12.9,0,19.4,0c1.5,0,2.2,0.7,2.2,2.2c0,5.3,0,10.6,0,16c0,0.2,0,0.3,0,0.5c-0.5,0-0.9,0-1.5,0c0-0.2,0-0.4,0-0.6
	c0-5.2,0-10.5,0-15.7c0-0.8-0.1-0.9-0.9-0.9c-6.4,0-12.8,0-19.2,0c-0.8,0-0.9,0.1-0.9,0.8c0,4.5,0,9,0,13.5c0,0.2,0,0.4,0,0.6
	c0.3,0,0.6,0,1,0c0.8,0,1.6,0,2.4,0c0.1,0,0.4,0.2,0.4,0.3c0,0.6,0.1,1.3,0,1.9c-0.2,1.4-1.4,2.4-2.8,2.5c-0.1,0-0.3,0.2-0.4,0.3
	c-0.3,0.5-0.3,1,0.2,1.5c1.9,2,2.2,4.5,1.7,7.1C9.5,30.3,9.5,30.5,9.4,30.8z"/>
<path class="st0" d="M31.9,36c0-0.7,0-1.3,0-1.9c0-0.1,0.2-0.3,0.3-0.4c0.8-0.7,1.2-1.5,1.2-2.6c0-2.5,0-5.1-0.1-7.6
	c0-0.3-0.2-0.7-0.4-0.8c-0.2-0.1-0.6,0.1-1,0.1c-0.5,0.1-0.9,0.1-1.4,0.1c-0.1-0.5-0.1-1.1-0.7-1c-0.3,0-0.6,0.3-0.9,0.5
	c0,0,0.1,0.1,0.1,0.1c-0.4,0-0.9,0-1.3,0c-0.1-0.5,0.1-1.4-0.8-1.3c-0.9,0.1-0.5,0.9-0.7,1.4c-0.5,0-0.9,0-1.4,0c0-0.2,0-0.4,0-0.6
	c0-2.4,0-4.8,0-7.2c0-0.6-0.3-1-0.7-1c-0.5,0-0.7,0.3-0.7,1c0,4.4,0,8.8,0,13.2c0,0.2,0,0.5,0,0.7c-0.5,0-0.9,0-1.4,0
	c0-0.3,0-0.6,0-1c0-0.9,0-1.7,0-2.6c0-0.8-0.5-1.3-1.4-1.4c0,0.1,0,0.3,0,0.4c0,1.5,0,2.9,0,4.4c0,0.2,0.1,0.5,0.3,0.7
	c1.1,1.4,2.2,2.7,3.4,4c0.4,0.5,1.1,0.7,1.7,1c0.3,0.1,0.4,0.2,0.4,0.5c0,0.4,0,0.8,0,1.3c-0.5,0-0.9,0-1.4,0
	c0.1-0.5-0.2-0.7-0.6-0.9c-0.5-0.3-1-0.7-1.4-1.1c-1.1-1.3-2.2-2.6-3.3-3.9c-0.4-0.5-0.6-1-0.6-1.5c0-1.9,0-3.9,0-5.8
	c0-0.5,0.2-0.6,0.6-0.6c0.7,0.1,1.5,0.1,2.4,0.2c0-0.7,0-1.5,0-2.3c0-1.8,0-3.6,0-5.4c0-1.4,0.9-2.4,2.2-2.4c1.3,0,2.2,1,2.2,2.4
	c0,1.4,0,2.9,0,4.3c0,0.2,0,0.4,0,0.6c0.5,0.1,1,0.1,1.4,0.3c0.4,0.2,0.7,0.6,1.1,0.7c0.4,0.1,0.8-0.2,1.2-0.1
	c0.4,0.1,0.8,0.4,1.2,0.5c0.2,0.1,0.4,0.2,0.6,0.2c1.7-0.3,2.8,0.6,2.8,2.2c0,2.7,0.1,5.3,0.1,8c0,1-0.3,2-1,2.7
	c-0.4,0.4-0.6,0.8-0.5,1.4c0,0.2,0,0.4,0,0.6C32.8,36,32.4,36,31.9,36z"/>
<path class="st1" d="M13.2,12.2c-1.1,0-2.1,0-3.2,0c-0.4,0-0.6-0.1-0.6-0.6c0-1.8,0-3.7,0-5.5c0-0.4,0.1-0.6,0.5-0.6
	c2.1,0,4.2,0,6.3,0c0.4,0,0.6,0.1,0.5,0.6c0,1.9,0,3.7,0,5.6c0,0.4-0.2,0.5-0.5,0.5C15.3,12.2,14.2,12.2,13.2,12.2z M11.1,10.6
	c1.4,0,2.6,0,3.9,0c0.1,0,0.3-0.2,0.3-0.2c0-1.1,0-2.1,0-3.2c-1.5,0-2.8,0-4.2,0C11.1,8.3,11.1,9.4,11.1,10.6z"/>
<path class="st1" d="M20.5,13.5c0,0.5,0,0.9,0,1.3c0,0.1-0.3,0.3-0.5,0.3c-1.7,0-3.3,0-5,0c-1.7,0-3.4,0-5,0c-0.5,0-0.6-0.2-0.6-0.6
	c0-1.1-0.1-1,1-1c3.1,0,6.2,0,9.4,0C20,13.5,20.2,13.5,20.5,13.5z"/>
<path class="st1" d="M20.5,17.9c-0.2,0-0.4,0-0.5,0c-2.5,0-5,0-7.4,0c-0.4,0-0.6-0.1-0.6-0.6c0-0.1,0-0.2,0-0.3
	c-0.1-0.5,0.1-0.7,0.6-0.7c2.4,0,4.8,0,7.3,0c0.5,0,0.7,0.2,0.7,0.7C20.5,17.3,20.5,17.6,20.5,17.9z"/>
<path class="st1" d="M20.5,20.8c-0.3,0-0.4,0-0.6,0c-2.4,0-4.9,0-7.3,0c-0.5,0-0.7-0.2-0.6-0.6c0-0.2,0-0.3,0-0.5
	c0-0.3,0.1-0.5,0.4-0.5c2.6,0,5.1,0,7.7,0c0.3,0,0.4,0.1,0.4,0.4C20.5,20,20.5,20.4,20.5,20.8z"/>
<path class="st1" d="M17.6,22.2c0,0.1,0.1,0.2,0.1,0.2c0.2,1.2,0.1,1.3-1.1,1.3c-2.2,0-4.3,0-6.5,0c-0.7,0-0.7,0-0.7-0.7
	c0-0.1,0-0.1,0-0.2c-0.1-0.5,0.1-0.6,0.6-0.6c2.4,0,4.7,0,7.1,0C17.3,22.2,17.5,22.2,17.6,22.2z"/>
</svg>
