<?xml version="1.0" encoding="utf-8"?>
<!-- Generator: Adobe Illustrator 21.1.0, SVG Export Plug-In . SVG Version: 6.00 Build 0)  -->
<svg version="1.1" id="Layer_1" xmlns="http://www.w3.org/2000/svg" xmlns:xlink="http://www.w3.org/1999/xlink" x="0px" y="0px"
	 viewBox="0 0 36 36" style="enable-background:new 0 0 36 36;" xml:space="preserve">
<style type="text/css">
	.st0{fill:#EC135C;}
	.st1{fill:#131C2F;}
</style>
<g>
	<path class="st0" d="M24.2,29.8c-1.7,0-3,1.4-3,3c0,1.7,1.4,3,3,3c1.6,0,3-1.4,3-3C27.2,31.1,25.8,29.8,24.2,29.8L24.2,29.8z
		 M24.2,34.3c-0.8,0-1.4-0.7-1.4-1.5c0-0.8,0.7-1.5,1.4-1.5c0.8,0,1.4,0.7,1.4,1.5C25.7,33.6,25,34.3,24.2,34.3L24.2,34.3z
		 M24.2,34.3"/>
	<path class="st0" d="M8.1,29.8c-1.7,0-3,1.4-3,3c0,1.7,1.4,3,3,3c1.7,0,3-1.4,3-3C11,31.1,9.7,29.8,8.1,29.8L8.1,29.8z M8.1,34.3
		c-0.8,0-1.4-0.7-1.4-1.5c0-0.8,0.7-1.5,1.4-1.5c0.8,0,1.4,0.7,1.4,1.5C9.5,33.6,8.8,34.3,8.1,34.3L8.1,34.3z M8.1,34.3"/>
	<path class="st1" d="M31.4,0.2l-1.2,4.6H0.4l5.5,16.3c-1.8,0.3-3.2,1.8-3.2,3.8c0,2.2,1.7,3.9,3.8,3.9h20.7v-1.4H6.5
		c-1.3,0-2.3-1.1-2.3-2.4c0-1.4,1.1-2.4,2.3-2.4h20.7l5.4-20.9h3V0.2H31.4z M26.1,21H7.5L2.5,6.3h27.3L26.1,21z M26.1,21"/>
	<rect x="10" y="9.9" class="st0" width="1.5" height="8.6"/>
	<rect x="15.4" y="9.9" class="st0" width="1.5" height="8.6"/>
	<rect x="20.8" y="9.9" class="st0" width="1.5" height="8.6"/>
</g>
</svg>
