<?xml version="1.0" encoding="utf-8"?>
<!-- Generator: Adobe Illustrator 21.1.0, SVG Export Plug-In . SVG Version: 6.00 Build 0)  -->
<svg version="1.1" id="Layer_1" xmlns="http://www.w3.org/2000/svg" xmlns:xlink="http://www.w3.org/1999/xlink" x="0px" y="0px"
	 viewBox="0 0 36 36" style="enable-background:new 0 0 36 36;" xml:space="preserve">
<style type="text/css">
	.st0{fill:#EC135C;}
</style>
<path class="st0" d="M34.8,29.4L22.7,17.9L34.2,5.9c1.3-1.3,1.2-3.4-0.1-4.7c-1.3-1.3-3.4-1.2-4.7,0.1L17.9,13.3L5.8,1.8
	C4.5,0.5,2.4,0.6,1.1,1.9s-1.2,3.4,0.1,4.7l12.1,11.5L1.8,30.2c-1.3,1.3-1.2,3.4,0.1,4.7s3.4,1.2,4.7-0.1l11.5-12.1l12.1,11.5
	c1.3,1.3,3.4,1.2,4.7-0.1C36.2,32.8,36.1,30.7,34.8,29.4z"/>
</svg>
