<?xml version="1.0" encoding="utf-8"?>
<!-- Generator: Adobe Illustrator 21.1.0, SVG Export Plug-In . SVG Version: 6.00 Build 0)  -->
<svg version="1.1" id="Layer_1" xmlns="http://www.w3.org/2000/svg" xmlns:xlink="http://www.w3.org/1999/xlink" x="0px" y="0px"
	 viewBox="0 0 36 36" style="enable-background:new 0 0 36 36;" xml:space="preserve">
<style type="text/css">
	.st0{fill:#EC135C;}
	.st1{fill:none;}
	.st2{fill:#131C2F;}
</style>
<g>
	<g>
		<g id="XMLID_48_">
			<g>
				<path class="st0" d="M17.4,20.5l-0.8,1.3l-1.5-1.2L13.4,25c0,0-0.3,0.8-1.2,0.8c0,0-1.2,0-1.3-1.3v-6.7c0,0,0-1.1,1.1-1.3
					c0,0,0.7-0.2,1.6,0.7L17.4,20.5z"/>
			</g>
			<g>
			</g>
		</g>
		<g id="XMLID_47_">
			<g>
				<path class="st0" d="M16.6,21.8l0.8-1.3l1.5,1.2l1.7-4.4c0,0,0.3-0.8,1.2-0.8c0,0,1.2,0,1.3,1.3v6.7c0,0,0,1.1-1.1,1.3
					c0,0-0.7,0.2-1.6-0.7L16.6,21.8z"/>
			</g>
			<g>
			</g>
		</g>
	</g>
</g>
<g>
	<path class="st1" d="M1.1,10.6v18.1c0,2.2,1.8,4.1,4.1,4.1h23.7c2.2,0,4.1-1.8,4.1-4.1V13.5h-5.4v-7H5.2C2.9,6.5,1.1,8.3,1.1,10.6z
		 M21.8,13.3c0.7,0,1.3,0.6,1.3,1.3c0,0.7-0.6,1.3-1.3,1.3c-0.7,0-1.3-0.6-1.3-1.3C20.5,13.9,21.1,13.3,21.8,13.3z M12.2,13.3
		c0.7,0,1.3,0.6,1.3,1.3c0,0.7-0.6,1.3-1.3,1.3c-0.7,0-1.3-0.6-1.3-1.3C10.9,13.9,11.5,13.3,12.2,13.3z"/>
	<path class="st2" d="M32.9,28.6c0,2.2-1.8,4.1-4.1,4.1H5.2c-2.2,0-4.1-1.8-4.1-4.1V10.6c0-2.2,1.8-4.1,4.1-4.1h22.3V5.4H5.2
		C2.3,5.4,0,7.7,0,10.6v18.1c0,2.9,2.3,5.2,5.2,5.2h23.7c2.9,0,5.2-2.3,5.2-5.2V13.5h-1.1V28.6z"/>
	<path class="st2" d="M11.5,4.2h10.8c0.6,0,1.1-0.5,1.1-1.1S23,2,22.4,2H11.5c-0.6,0-1.1,0.5-1.1,1.1S10.9,4.2,11.5,4.2z"/>
	<circle class="st0" cx="12.2" cy="14.6" r="1.3"/>
	<circle class="st0" cx="21.8" cy="14.6" r="1.3"/>
</g>
<g>
	<path class="st0" d="M34.9,6V4.5c0-1.1-0.9-2-2-2c-1.1,0-2,0.9-2,2V6c-0.6,0-1,0.5-1,1v2.5c0,0.6,0.5,1,1,1h4c0.6,0,1-0.5,1-1V7
		C35.9,6.5,35.5,6,34.9,6L34.9,6z M33.1,8.5v0.8c0,0.1-0.1,0.3-0.3,0.3c-0.1,0-0.3-0.1-0.3-0.3V8.5c-0.1-0.1-0.3-0.2-0.3-0.4
		c0-0.3,0.2-0.5,0.5-0.5c0.3,0,0.5,0.2,0.5,0.5C33.4,8.2,33.3,8.4,33.1,8.5L33.1,8.5z M33.9,6h-2V4.5c0-0.6,0.5-1,1-1
		c0.6,0,1,0.5,1,1V6z M33.9,6"/>
</g>
</svg>
