<?xml version="1.0" encoding="utf-8"?>
<!-- Generator: Adobe Illustrator 21.1.0, SVG Export Plug-In . SVG Version: 6.00 Build 0)  -->
<svg version="1.1" id="Layer_1" xmlns="http://www.w3.org/2000/svg" xmlns:xlink="http://www.w3.org/1999/xlink" x="0px" y="0px"
	 viewBox="0 0 36 36" style="enable-background:new 0 0 36 36;" xml:space="preserve">
<style type="text/css">
	.st0{fill:#FFFFFF;}
	.st1{fill:#EC135C;}
</style>
<g>
	<path class="st0" d="M30.5,33.6h-25c-3,0-5.5-2.5-5.5-5.5V9.1c0-3,2.5-5.5,5.5-5.5h25c3,0,5.5,2.5,5.5,5.5v19.1
		C36,31.2,33.5,33.6,30.5,33.6z"/>
	<path class="st0" d="M23.7,2.4H12.2c-0.7,0-1.2-0.5-1.2-1.2v0C11,0.5,11.5,0,12.2,0h11.5c0.7,0,1.2,0.5,1.2,1.2v0
		C24.8,1.8,24.3,2.4,23.7,2.4z"/>
	<g>
		<g>
			<g id="XMLID_50_">
				<g>
					<path class="st1" d="M18.4,19.6L17.6,21l-1.5-1.3l-1.8,4.7c0,0-0.3,0.9-1.3,0.9c0,0-1.3,0-1.4-1.4v-7.1c0,0,0-1.1,1.2-1.4
						c0,0,0.8-0.2,1.7,0.8L18.4,19.6z"/>
				</g>
				<g>
				</g>
			</g>
			<circle class="st1" cx="12.9" cy="13.4" r="1.4"/>
			<g id="XMLID_49_">
				<g>
					<path class="st1" d="M17.6,21l0.8-1.4l1.5,1.3l1.8-4.7c0,0,0.3-0.9,1.3-0.9c0,0,1.3,0,1.4,1.4v7.1c0,0,0,1.1-1.2,1.4
						c0,0-0.8,0.2-1.7-0.8L17.6,21z"/>
				</g>
				<g>
				</g>
			</g>
			<circle class="st1" cx="23.1" cy="13.4" r="1.4"/>
		</g>
	</g>
</g>
</svg>
