<?xml version="1.0" encoding="utf-8"?>
<!-- Generator: Adobe Illustrator 21.1.0, SVG Export Plug-In . SVG Version: 6.00 Build 0)  -->
<svg version="1.1" id="Layer_1" xmlns="http://www.w3.org/2000/svg" xmlns:xlink="http://www.w3.org/1999/xlink" x="0px" y="0px"
	 viewBox="0 0 36 36" style="enable-background:new 0 0 36 36;" xml:space="preserve">
<style type="text/css">
	.st0{fill:#EA135C;}
	.st1{fill:#FFFFFF;}
</style>
<g>
	<g>
		<path class="st0" d="M18.7,36.1c2.6,0,4.7-2.1,4.7-4.7h-4.7H14C14,34,16.1,36.1,18.7,36.1z"/>
		<path class="st0" d="M18.7,5.6c1.3,0,2.3-1,2.3-2.3c0-1.3-1-2.3-2.3-2.3c-1.3,0-2.3,1-2.3,2.3C16.4,4.5,17.4,5.6,18.7,5.6z"/>
	</g>
</g>
<path class="st1" d="M34.8,27.3C34.8,27.2,34.8,27.2,34.8,27.3c-0.3-0.5-0.5-0.8-0.9-1c-2.5-1.4-4-5.4-4.5-11.7
	C29,10,25.7,6.1,21.4,5c0.3-0.5,0.5-1.1,0.5-1.7c0-1.8-1.5-3.2-3.2-3.2c-1.8,0-3.2,1.5-3.2,3.2c0,0.6,0.2,1.2,0.5,1.7
	c-4.3,1.2-7.7,5-8,9.6c-0.5,6.3-2,10.2-4.5,11.7c-0.7,0.4-1.2,1.3-1.4,2.6C2,29.7,1.9,31.4,2.6,32c0.2,0.2,0.4,0.3,0.7,0.3h9.9
	c0.4,2.7,2.8,4.7,5.6,4.7c2.8,0,5.1-2,5.6-4.7h9.9c0.2,0,0.5-0.1,0.7-0.3c0.6-0.6,0.6-2.4,0.5-3.2C35.2,28.2,35,27.7,34.8,27.3z
	 M18.7,1.8c0.8,0,1.4,0.6,1.4,1.4c0,0.8-0.6,1.4-1.4,1.4c-0.8,0-1.4-0.6-1.4-1.4C17.3,2.5,17.9,1.8,18.7,1.8z M18.7,35.1
	c-1.8,0-3.3-1.2-3.7-2.9h7.3C21.9,33.9,20.4,35.1,18.7,35.1z M33.4,30.4H3.9c0-0.3-0.1-0.7,0-1.2C4,28.4,4.2,28,4.4,27.9
	c3.1-1.8,4.9-6.1,5.4-13.1c0.4-4.6,4.3-8.3,8.9-8.3c4.6,0,8.5,3.6,8.9,8.3c0.3,3.4,0.8,6.1,1.6,8.3h-3.5c-0.5,0-0.9,0.4-0.9,0.9
	s0.4,0.9,0.9,0.9h4.4c0.4,0.7,0.9,1.3,1.4,1.8h-6.2c-0.5,0-0.9,0.4-0.9,0.9c0,0.5,0.4,0.9,0.9,0.9h8.1c0,0.2,0.1,0.4,0.1,0.6
	C33.5,29.7,33.5,30.1,33.4,30.4z"/>
<path class="st1" d="M21.9,26.7h-0.6c-0.5,0-0.9,0.4-0.9,0.9c0,0.5,0.4,0.9,0.9,0.9h0.6c0.5,0,0.9-0.4,0.9-0.9
	C22.9,27.2,22.5,26.7,21.9,26.7z"/>
</svg>
