<?xml version="1.0" encoding="utf-8"?>
<!-- Generator: Adobe Illustrator 21.1.0, SVG Export Plug-In . SVG Version: 6.00 Build 0)  -->
<svg version="1.1" id="Layer_1" xmlns="http://www.w3.org/2000/svg" xmlns:xlink="http://www.w3.org/1999/xlink" x="0px" y="0px"
	 viewBox="0 0 36 36" style="enable-background:new 0 0 36 36;" xml:space="preserve">
<style type="text/css">
	.st0{fill:#131C2F;}
	.st1{fill:#EA135C;}
</style>
<g>
	<path class="st0" d="M0.8,10.5C0.3,10.5,0,10.2,0,9.8v-3C0,4.7,1.7,3,3.8,3h3c0.4,0,0.8,0.3,0.8,0.8S7.2,4.5,6.8,4.5h-3
		c-1.2,0-2.2,1-2.2,2.2v3C1.5,10.2,1.2,10.5,0.8,10.5z"/>
	<path class="st0" d="M35.2,10.5c-0.4,0-0.8-0.3-0.8-0.8v-3c0-1.2-1-2.2-2.2-2.2h-3c-0.4,0-0.8-0.3-0.8-0.8S28.8,3,29.2,3h3
		C34.3,3,36,4.7,36,6.8v3C36,10.2,35.7,10.5,35.2,10.5z"/>
	<path class="st0" d="M6.8,33h-3C1.7,33,0,31.3,0,29.2v-3c0-0.4,0.3-0.8,0.8-0.8s0.8,0.3,0.8,0.8v3c0,1.2,1,2.2,2.2,2.2h3
		c0.4,0,0.8,0.3,0.8,0.8S7.2,33,6.8,33z"/>
	<path class="st0" d="M32.2,33h-3c-0.4,0-0.8-0.3-0.8-0.8s0.3-0.8,0.8-0.8h3c1.2,0,2.2-1,2.2-2.2v-3c0-0.4,0.3-0.8,0.8-0.8
		s0.8,0.3,0.8,0.8v3C36,31.3,34.3,33,32.2,33z"/>
</g>
<g>
	<path class="st0" d="M8.7,10.6c-0.5,0-0.9,0.4-0.9,0.9v13c0,0.5,0.4,0.9,0.9,0.9s0.9-0.4,0.9-0.9v-13C9.7,11,9.3,10.6,8.7,10.6z"/>
	<path class="st0" d="M12.4,10.6c-0.5,0-0.9,0.4-0.9,0.9v9.3c0,0.5,0.4,0.9,0.9,0.9s0.9-0.4,0.9-0.9v-9.3C13.4,11,13,10.6,12.4,10.6
		z"/>
	<path class="st0" d="M16.1,10.6c-0.5,0-0.9,0.4-0.9,0.9v9.3c0,0.5,0.4,0.9,0.9,0.9c0.5,0,0.9-0.4,0.9-0.9v-9.3
		C17.1,11,16.7,10.6,16.1,10.6z"/>
	<path class="st0" d="M20.8,24.5v-13c0-0.5-0.4-0.9-0.9-0.9s-0.9,0.4-0.9,0.9v13c0,0.5,0.4,0.9,0.9,0.9S20.8,25,20.8,24.5z"/>
	<path class="st0" d="M23.6,10.6c-0.5,0-0.9,0.4-0.9,0.9v9.3c0,0.5,0.4,0.9,0.9,0.9s0.9-0.4,0.9-0.9v-9.3
		C24.5,11,24.1,10.6,23.6,10.6z"/>
	<path class="st0" d="M26.3,24.5c0,0.5,0.4,0.9,0.9,0.9s0.9-0.4,0.9-0.9v-13c0-0.5-0.4-0.9-0.9-0.9s-0.9,0.4-0.9,0.9V24.5z"/>
	<path class="st1" d="M12.5,23.6L12.5,23.6c-0.5,0-0.9,0.4-0.9,0.9s0.4,0.9,0.9,0.9s0.9-0.4,0.9-0.9S13,23.6,12.5,23.6z"/>
	<path class="st1" d="M16.2,23.6L16.2,23.6c-0.5,0-0.9,0.4-0.9,0.9s0.4,0.9,0.9,0.9c0.5,0,0.9-0.4,0.9-0.9S16.7,23.6,16.2,23.6z"/>
	<path class="st1" d="M23.6,23.6L23.6,23.6c-0.5,0-0.9,0.4-0.9,0.9s0.4,0.9,0.9,0.9s0.9-0.4,0.9-0.9S24.1,23.6,23.6,23.6z"/>
</g>
</svg>
