<?xml version="1.0" encoding="utf-8"?>
<!-- Generator: Adobe Illustrator 21.1.0, SVG Export Plug-In . SVG Version: 6.00 Build 0)  -->
<svg version="1.1" id="Layer_1" xmlns="http://www.w3.org/2000/svg" xmlns:xlink="http://www.w3.org/1999/xlink" x="0px" y="0px"
	 viewBox="0 0 36 36" style="enable-background:new 0 0 36 36;" xml:space="preserve">
<style type="text/css">
	.st0{fill:#EA135C;}
	.st1{fill:#131C2F;}
</style>
<g>
	<path class="st0" d="M18,15.6c2.3,0,4.1-1.9,4.1-4.1c0-2.3-1.9-4.1-4.1-4.1s-4.1,1.9-4.1,4.1C13.9,13.8,15.7,15.6,18,15.6L18,15.6z
		 M18,8.5"/>
	<path class="st1" d="M17.9,32.6L27,19.5c3.4-4.5,2.9-12-1.1-16c-2.1-2.1-5-3.3-8-3.3c-3,0-5.9,1.2-8,3.3c-4,4-4.5,11.4-1.1,15.9
		L17.9,32.6z M10.7,4.4c1.9-1.9,4.5-3,7.2-3c2.7,0,5.3,1.1,7.2,3c3.6,3.6,4,10.3,0.9,14.4l-8.1,11.7L9.8,18.8
		C6.7,14.7,7.1,8,10.7,4.4L10.7,4.4z M10.7,4.4"/>
	<path class="st1" d="M25.2,25.7c-0.3,0-0.6,0.2-0.7,0.5c0,0.3,0.2,0.6,0.5,0.7c6.2,0.7,9.5,2.7,9.5,3.8c0,1.6-6.3,3.8-16.6,3.8
		c-10.3,0-16.6-2.2-16.6-3.8c0-1.1,3.3-3.1,9.5-3.8c0.3,0,0.6-0.3,0.5-0.7c0-0.3-0.3-0.6-0.7-0.5c-6.2,0.7-10.6,2.8-10.6,5
		c0,2.5,6.1,5,17.8,5s17.8-2.5,17.8-5C35.8,28.5,31.4,26.4,25.2,25.7L25.2,25.7z M25.2,25.7"/>
</g>
</svg>
