<?xml version="1.0" encoding="utf-8"?>
<!-- Generator: Adobe Illustrator 21.1.0, SVG Export Plug-In . SVG Version: 6.00 Build 0)  -->
<svg version="1.1" id="Layer_1" xmlns="http://www.w3.org/2000/svg" xmlns:xlink="http://www.w3.org/1999/xlink" x="0px" y="0px"
	 viewBox="0 0 36 36" style="enable-background:new 0 0 36 36;" xml:space="preserve">
<style type="text/css">
	.st0{fill:#131C2F;}
	.st1{fill:#EA135C;}
	.st2{fill:#F40058;}
</style>
<path class="st0" d="M25.8,0c0.6,0.2,1.2,0.4,1.8,0.8c0.8,0.7,1.2,1.5,1.2,2.5c0,1.8,0,3.5,0,5.3c0,0.5-0.3,0.8-0.7,0.8
	c-0.4,0-0.7-0.3-0.7-0.8c0-1.6,0-3.3,0-4.9c0-1.5-0.8-2.3-2.3-2.3c-5.7,0-11.4,0-17.1,0c-1.6,0-2.4,0.8-2.4,2.4c0,3.6,0,7.2,0,10.8
	c0,0.2,0,0.3-0.1,0.5c-0.1,0.3-0.4,0.5-0.7,0.5c-0.3,0-0.5-0.2-0.6-0.5c0-0.1,0-0.3,0-0.4c0-3.6,0-7.3,0-10.9c0-1.9,1.1-3.2,2.9-3.6
	c0,0,0.1,0,0.1-0.1C13.4,0,19.6,0,25.8,0z"/>
<path class="st0" d="M7.2,35.4c-0.6-0.2-1.2-0.4-1.8-0.8c-0.7-0.7-1.2-1.5-1.2-2.5c0-3.8,0-7.6,0-11.5c0-0.5,0.3-0.8,0.7-0.8
	c0.4,0,0.7,0.3,0.7,0.8c0,3.7,0,7.4,0,11.1c0,0.7,0.2,1.4,0.8,1.8C6.8,33.9,7.3,34,7.8,34c4.9,0,9.8,0,14.7,0c0.9,0,1.8,0,2.6,0
	c1.4,0,2.2-0.9,2.2-2.2c0-1.5,0-3,0-4.5c0-0.1,0-0.3,0-0.4c0.1-0.3,0.4-0.5,0.7-0.5c0.3,0,0.5,0.2,0.6,0.5c0,0.1,0,0.3,0,0.4
	c0,1.5,0,3,0,4.5c0,1.9-1,3.2-2.9,3.6c0,0-0.1,0-0.1,0.1C19.6,35.4,13.4,35.4,7.2,35.4z"/>
<path class="st0" d="M24.7,5.8c-5.5,0-11,0-16.4,0c0,7.7,0,15.4,0,23.2c5.5,0,10.9,0,16.4,0c0-0.5,0-1.1,0-1.6c0-0.1,0-0.2,0-0.2
	c0-0.5,0.3-0.8,0.7-0.8c0.4,0,0.7,0.3,0.7,0.8c0,0.8,0,1.6,0,2.4c0,0.6-0.3,0.8-0.8,0.8c-5.8,0-11.7,0-17.5,0
	c-0.6,0-0.9-0.3-0.9-0.9c0-8.1,0-16.2,0-24.2c0-0.6,0.3-0.9,0.9-0.9c5.8,0,11.7,0,17.5,0c0.6,0,0.9,0.3,0.9,0.8c0,1.1,0,2.3,0,3.4
	c0,0.3-0.1,0.6-0.4,0.7c-0.2,0.1-0.5,0-0.7-0.1c-0.2-0.1-0.2-0.4-0.2-0.6C24.7,7.7,24.7,6.8,24.7,5.8z"/>
<path class="st0" d="M17.8,3.6c-0.5,0-1.1,0-1.6,0c-0.5,0-0.8-0.3-0.8-0.7c0-0.4,0.3-0.7,0.8-0.7c1.1,0,2.1,0,3.2,0
	c0.5,0,0.8,0.3,0.8,0.7c0,0.4-0.3,0.7-0.8,0.7C18.9,3.6,18.3,3.6,17.8,3.6C17.8,3.6,17.8,3.6,17.8,3.6z"/>
<path class="st0" d="M4.9,18.4c-0.4,0-0.7-0.3-0.7-0.7c0-0.4,0.3-0.7,0.7-0.7c0.4,0,0.7,0.3,0.7,0.7C5.6,18.1,5.3,18.4,4.9,18.4z"/>
<path class="st0" d="M16.5,32.9c-0.4,0-0.7-0.3-0.7-0.7c0-0.4,0.3-0.7,0.7-0.7c0.4,0,0.7,0.3,0.7,0.7C17.2,32.6,16.8,32.9,16.5,32.9
	z"/>
<path class="st0" d="M13.5,3.6c-0.4,0-0.7-0.3-0.7-0.7c0-0.4,0.3-0.7,0.7-0.7c0.4,0,0.7,0.3,0.7,0.7C14.1,3.3,13.8,3.6,13.5,3.6z"/>
<ellipse transform="matrix(1.216050e-02 -0.9999 0.9999 1.216050e-02 15.7744 40.0798)" class="st1" cx="28.2" cy="12.1" rx="0.7" ry="0.7"/>
<path class="st2" d="M31.7,19.1h-2.9v-2.9c0-0.3-0.3-0.6-0.6-0.6c-0.3,0-0.6,0.3-0.6,0.6v2.9h-2.9c-0.3,0-0.6,0.3-0.6,0.6
	s0.3,0.6,0.6,0.6h2.9v2.9c0,0.3,0.3,0.6,0.6,0.6c0.3,0,0.6-0.3,0.6-0.6v-2.9h2.9c0.3,0,0.6-0.3,0.6-0.6S32,19.1,31.7,19.1z"/>
</svg>
