<svg xmlns="http://www.w3.org/2000/svg" viewBox="0 0 43.05 39.96"><defs><style>.cls-1{fill:#fff;}.cls-2{fill:#ec135c;}</style></defs><title>digital_management_1</title><g id="Layer_2" data-name="Layer 2"><g id="Layer_1-2" data-name="Layer 1"><path class="cls-1" d="M36.29,40H6.77A6.78,6.78,0,0,1,0,33.19V10.67A6.78,6.78,0,0,1,6.77,3.91H36.29a6.78,6.78,0,0,1,6.77,6.77V33.19A6.78,6.78,0,0,1,36.29,40ZM6.77,5.91A4.77,4.77,0,0,0,2,10.67V33.19A4.77,4.77,0,0,0,6.77,38H36.29a4.77,4.77,0,0,0,4.77-4.77V10.67a4.77,4.77,0,0,0-4.77-4.77Z"/><rect class="cls-1" x="13.27" width="16.33" height="2.8" rx="1.4" ry="1.4"/><path class="cls-2" d="M22,23.11l-1,1.61-1.82-1.55-2.17,5.52a1.66,1.66,0,0,1-1.53,1,1.68,1.68,0,0,1-1.66-1.66V19.72a1.61,1.61,0,0,1,1.42-1.61,2.25,2.25,0,0,1,2,.9Z"/><circle class="cls-2" cx="15.5" cy="15.76" r="1.64"/><path class="cls-2" d="M21.05,24.72l1-1.61,1.82,1.55L26,19.14a1.67,1.67,0,0,1,1.53-1,1.68,1.68,0,0,1,1.66,1.66v8.35a1.61,1.61,0,0,1-1.42,1.61,2.25,2.25,0,0,1-2-.9Z"/><circle class="cls-2" cx="27.55" cy="15.76" r="1.64"/></g></g></svg>