<?xml version="1.0" encoding="utf-8"?>
<!-- Generator: Adobe Illustrator 21.1.0, SVG Export Plug-In . SVG Version: 6.00 Build 0)  -->
<svg version="1.1" id="Layer_1" xmlns="http://www.w3.org/2000/svg" xmlns:xlink="http://www.w3.org/1999/xlink" x="0px" y="0px"
	 viewBox="0 0 36 36" style="enable-background:new 0 0 36 36;" xml:space="preserve">
<style type="text/css">
	.st0{fill:#131C2F;}
	.st1{fill:#EC135C;}
</style>
<g>
	<path class="st0" d="M30.4,34.5H5.5C2.5,34.5,0,32,0,29V10c0-3,2.5-5.5,5.5-5.5h24.9c3,0,5.5,2.5,5.5,5.5v19
		C35.9,32,33.4,34.5,30.4,34.5z M5.5,5.7c-2.4,0-4.3,1.9-4.3,4.3v19c0,2.4,1.9,4.3,4.3,4.3h24.9c2.4,0,4.3-1.9,4.3-4.3V10
		c0-2.4-1.9-4.3-4.3-4.3H5.5z"/>
	<path class="st0" d="M23.6,3.4H12.1c-0.7,0-1.2-0.5-1.2-1.2v0C11,1.5,11.5,1,12.1,1h11.4c0.7,0,1.2,0.5,1.2,1.2v0
		C24.7,2.8,24.2,3.4,23.6,3.4z"/>
	<g>
		<g>
			<g id="XMLID_28_">
				<g>
					<path class="st1" d="M18.3,20.5l-0.8,1.4L16,20.6l-1.8,4.7c0,0-0.3,0.9-1.3,0.9c0,0-1.3,0-1.4-1.4v-7.1c0,0,0-1.1,1.2-1.4
						c0,0,0.8-0.2,1.7,0.8L18.3,20.5z"/>
				</g>
				<g>
				</g>
			</g>
			<circle class="st1" cx="12.8" cy="14.3" r="1.4"/>
			<g id="XMLID_27_">
				<g>
					<path class="st1" d="M17.5,21.9l0.8-1.4l1.5,1.3l1.8-4.7c0,0,0.3-0.9,1.3-0.9c0,0,1.3,0,1.4,1.4v7.1c0,0,0,1.1-1.2,1.4
						c0,0-0.8,0.2-1.7-0.8L17.5,21.9z"/>
				</g>
				<g>
				</g>
			</g>
			<circle class="st1" cx="23" cy="14.3" r="1.4"/>
		</g>
	</g>
</g>
</svg>
