<?xml version="1.0" encoding="utf-8"?>
<!-- Generator: Adobe Illustrator 21.1.0, SVG Export Plug-In . SVG Version: 6.00 Build 0)  -->
<svg version="1.1" id="Layer_1" xmlns="http://www.w3.org/2000/svg" xmlns:xlink="http://www.w3.org/1999/xlink" x="0px" y="0px"
	 viewBox="0 0 36 36" style="enable-background:new 0 0 36 36;" xml:space="preserve">
<style type="text/css">
	.st0{fill:#131C2F;}
	.st1{fill:#EC135C;}
</style>
<g>
	<path class="st0" d="M30.5,34.6h-25c-3,0-5.5-2.5-5.5-5.5V10.1c0-3,2.5-5.5,5.5-5.5h25c3,0,5.5,2.5,5.5,5.5v19.1
		C36,32.2,33.5,34.6,30.5,34.6z M5.5,5.8c-2.4,0-4.3,1.9-4.3,4.3v19.1c0,2.4,1.9,4.3,4.3,4.3h25c2.4,0,4.3-1.9,4.3-4.3V10.1
		c0-2.4-1.9-4.3-4.3-4.3H5.5z"/>
	<path class="st0" d="M23.7,3.4H12.2c-0.7,0-1.2-0.5-1.2-1.2v0C11,1.5,11.5,1,12.2,1h11.5c0.7,0,1.2,0.5,1.2,1.2v0
		C24.8,2.8,24.3,3.4,23.7,3.4z"/>
	<g>
		<g>
			<g id="XMLID_28_">
				<g>
					<path class="st1" d="M18.4,20.6L17.6,22l-1.5-1.3l-1.8,4.7c0,0-0.3,0.9-1.3,0.9c0,0-1.3,0-1.4-1.4v-7.1c0,0,0-1.1,1.2-1.4
						c0,0,0.8-0.2,1.7,0.8L18.4,20.6z"/>
				</g>
				<g>
				</g>
			</g>
			<circle class="st1" cx="12.9" cy="14.4" r="1.4"/>
			<g id="XMLID_27_">
				<g>
					<path class="st1" d="M17.6,22l0.8-1.4l1.5,1.3l1.8-4.7c0,0,0.3-0.9,1.3-0.9c0,0,1.3,0,1.4,1.4v7.1c0,0,0,1.1-1.2,1.4
						c0,0-0.8,0.2-1.7-0.8L17.6,22z"/>
				</g>
				<g>
				</g>
			</g>
			<circle class="st1" cx="23.1" cy="14.4" r="1.4"/>
		</g>
	</g>
</g>
</svg>
