<?xml version="1.0" encoding="utf-8"?>
<!-- Generator: Adobe Illustrator 21.1.0, SVG Export Plug-In . SVG Version: 6.00 Build 0)  -->
<svg version="1.1" id="Layer_1" xmlns="http://www.w3.org/2000/svg" xmlns:xlink="http://www.w3.org/1999/xlink" x="0px" y="0px"
	 viewBox="0 0 36 36" style="enable-background:new 0 0 36 36;" xml:space="preserve">
<style type="text/css">
	.st0{fill:#131C2F;}
	.st1{fill:#EC135C;}
</style>
<path class="st0" d="M0,29.6c0.4,0,0.7,0,1.1,0c0,0.9,0,1.7,0,2.6c-0.4,0-0.7,0-1.1,0C0,31.3,0,30.5,0,29.6z"/>
<path class="st0" d="M36,31.4c-0.7,0-1.3,0-2,0c0-0.4,0-0.7,0-1.1c0.7,0,1.3,0,2,0C36,30.7,36,31.1,36,31.4z"/>
<path class="st0" d="M0.1,3C12.1,3,24,3,35.9,3c0,8.3,0,16.6,0,24.8c-11.9,0-23.8,0-35.8,0C0.1,19.6,0.1,11.3,0.1,3z M34.8,26.7
	c0-7.6,0-15.1,0-22.6c-11.2,0-22.4,0-33.6,0c0,7.6,0,15.1,0,22.6C12.4,26.7,23.6,26.7,34.8,26.7z"/>
<path class="st0" d="M5.5,31.5c-0.2-1.1-0.2-1.1,0.9-1.1c0.6,0,1.1,0,1.7,0c0.2,0,0.4-0.1,0.5-0.3c0.6-1.2,1.9-1.7,2.9-1
	c0.4,0.2,0.6,0.6,0.9,1c0.1,0.2,0.2,0.3,0.5,0.3c6.2,0,12.4,0,18.6,0c0.2,0,0.5,0,0.7,0c0,0.4,0,0.7,0,1.1c-0.1,0-0.3,0-0.4,0
	c-6.3,0-12.6,0-18.8,0c-0.3,0-0.4,0.1-0.6,0.3c-0.4,0.7-1,1.2-1.9,1.2c-0.9,0-1.5-0.5-1.9-1.3c-0.1-0.3-0.3-0.3-0.5-0.3
	C7.2,31.5,6.3,31.5,5.5,31.5z M11.4,30.9c0-0.6-0.4-1-1-1c-0.6,0-1,0.4-1,1c0,0.6,0.4,1,1,1C11,31.9,11.4,31.6,11.4,30.9z"/>
<path class="st0" d="M3.3,32.2c-0.4,0-0.7,0-1.1,0c0-0.9,0-1.7,0-2.6c0.3,0,0.7,0,1.1,0C3.3,30.5,3.3,31.3,3.3,32.2z"/>
<path class="st1" d="M18,23.7c-4.4,0-8.1-3.8-8.1-8.2c0-4.5,3.7-8.3,8.2-8.2c4.4,0,8.1,3.8,8.1,8.3C26.1,19.9,22.4,23.7,18,23.7z
	 M25,15.4c0-4-3.1-7.1-7-7.1c-3.9,0-7,3.1-7,7.1c0,4,3.1,7.2,7,7.2C22,22.6,25,19.5,25,15.4z"/>
<path class="st1" d="M22.3,15.5c-2.3,1.3-4.5,2.6-6.7,3.9c0-2.6,0-5.2,0-7.9C17.8,12.8,20,14.1,22.3,15.5z"/>
</svg>
