<svg xmlns="http://www.w3.org/2000/svg" viewBox="0 0 29.54 34.54"><defs><style>.cls-1{fill:#131c2f;}.cls-2{fill:#ea135c;}</style></defs><title>document</title><g id="Layer_2" data-name="Layer 2"><g id="Layer_1-2" data-name="Layer 1"><path class="cls-1" d="M15,4.72H10a1.46,1.46,0,0,0-.34,0,.5.5,0,0,0,0,1,1.33,1.33,0,0,0,.33,0H20.09a1.39,1.39,0,0,0,.3,0,.48.48,0,0,0,.41-.5.47.47,0,0,0-.4-.48,1.5,1.5,0,0,0-.34,0Z"/><path class="cls-1" d="M15.07,17.35h5a1.77,1.77,0,0,0,.27,0,.46.46,0,0,0,.43-.45.45.45,0,0,0-.34-.51,1.41,1.41,0,0,0-.4,0H10a1.46,1.46,0,0,0-.4,0,.45.45,0,0,0-.35.51.46.46,0,0,0,.42.45,2.12,2.12,0,0,0,.34,0Z"/><path class="cls-1" d="M15,23h5a2.36,2.36,0,0,0,.34,0,.46.46,0,0,0,.43-.44.45.45,0,0,0-.37-.52,1.49,1.49,0,0,0-.37,0H10a1.42,1.42,0,0,0-.43.05.45.45,0,0,0-.32.53.45.45,0,0,0,.41.42A2.13,2.13,0,0,0,10,23Z"/><path class="cls-1" d="M15.06,10.24H9.77a.5.5,0,0,0-.05,1,2.22,2.22,0,0,0,.4,0h10c.14,0,.33,0,.42-.06s.31-.32.29-.47-.21-.33-.36-.46-.22,0-.33,0Z"/><path class="cls-1" d="M15,29.16h5c.13,0,.3,0,.4,0a.93.93,0,0,0,.37-.42.4.4,0,0,0-.29-.5,1.29,1.29,0,0,0-.43-.06H10a1.26,1.26,0,0,0-.43.06.4.4,0,0,0-.28.51.93.93,0,0,0,.37.42c.1.06.26,0,.4,0Z"/><path class="cls-1" d="M26.85,0a3.26,3.26,0,0,1,2,1.09,3.1,3.1,0,0,1,.7,2q0,2.28,0,4.55a1.65,1.65,0,0,1-1.78,1.79H26.1c-.4,0-.6-.17-.61-.48s.2-.52.6-.53h1.65c.55,0,.78-.23.78-.78,0-1.53,0-3.06,0-4.59a2,2,0,0,0-1.56-2,1.92,1.92,0,0,0-2.18,1.07,2.63,2.63,0,0,0-.21,1q0,10.91,0,21.82,0,3.2,0,6.41a2,2,0,0,0,1.27,2,2,2,0,0,0,2.67-1.83c.05-1.67,0-3.35,0-5a.4.4,0,0,0-.46-.45H26.2a.72.72,0,0,1-.45-.09.69.69,0,0,1-.23-.5.57.57,0,0,1,.38-.38,23.13,23.13,0,0,1,2.53,0,1.26,1.26,0,0,1,1.09,1.28c0,1.82,0,3.64,0,5.46A2.83,2.83,0,0,1,27,34.49l-.16.05H2.69a3.25,3.25,0,0,1-2-1.09,3.12,3.12,0,0,1-.7-2c0-.4,0-.81,0-1.21s.2-.63.51-.62.49.22.5.63,0,1,0,1.45a1.93,1.93,0,0,0,2,1.8c.84,0,1.69,0,2.53,0H24.27c-.13-.2-.24-.35-.33-.51a3.35,3.35,0,0,1-.4-1.75q0-13.9,0-27.79A3.46,3.46,0,0,1,24.31,1H3.62A2.43,2.43,0,0,0,1,3.63Q1,8.88,1,14.12q0,6.64,0,13.29c0,.1,0,.2,0,.3,0,.37-.2.6-.5.6s-.5-.23-.51-.6C0,26.8,0,25.89,0,25Q0,14.31,0,3.63A3.35,3.35,0,0,1,1.42.69,8.77,8.77,0,0,1,3,0Z"/><path class="cls-1" d="M15,4.72h5a1.5,1.5,0,0,1,.34,0,.47.47,0,0,1,.4.48.48.48,0,0,1-.41.5,1.39,1.39,0,0,1-.3,0H10a1.33,1.33,0,0,1-.33,0,.5.5,0,0,1,0-1,1.46,1.46,0,0,1,.34,0Z"/><path class="cls-1" d="M15.07,17.35H10a2.12,2.12,0,0,1-.34,0,.46.46,0,0,1-.42-.45.45.45,0,0,1,.35-.51,1.46,1.46,0,0,1,.4,0h10a1.41,1.41,0,0,1,.4,0,.45.45,0,0,1,.34.51.46.46,0,0,1-.43.45,1.77,1.77,0,0,1-.27,0Z"/><path class="cls-1" d="M15,23H10a2.13,2.13,0,0,1-.34,0,.45.45,0,0,1-.41-.42.45.45,0,0,1,.32-.53A1.42,1.42,0,0,1,10,22h10a1.49,1.49,0,0,1,.37,0,.45.45,0,0,1,.37.52.46.46,0,0,1-.43.44A2.36,2.36,0,0,1,20,23Z"/><path class="cls-1" d="M15.06,10.24h5c.11,0,.26,0,.33,0s.34.29.36.46-.15.35-.29.47-.28.06-.42.06h-10a2.22,2.22,0,0,1-.4,0,.5.5,0,0,1,.05-1h5.3Z"/><path class="cls-1" d="M15,29.16h-5c-.13,0-.3,0-.4,0a.93.93,0,0,1-.37-.42.4.4,0,0,1,.28-.51,1.26,1.26,0,0,1,.43-.06H20.06a1.29,1.29,0,0,1,.43.06.4.4,0,0,1,.29.5.93.93,0,0,1-.37.42c-.1.06-.26,0-.4,0Z"/><path class="cls-2" d="M5,26.38H6.27a1,1,0,0,1,1,1q0,1.28,0,2.56a.94.94,0,0,1-1,1c-.86,0-1.73,0-2.59,0a1,1,0,0,1-1-1q0-1.28,0-2.56a1,1,0,0,1,1-1H5Zm1.26,1H3.78v2.51H6.28Z"/><path class="cls-2" d="M5,14.57H6.28a1,1,0,0,1,1,.95c0,.89,0,1.77,0,2.66a.92.92,0,0,1-.91.94c-.9,0-1.8,0-2.69,0a.94.94,0,0,1-.94-1q0-1.28,0-2.56a1,1,0,0,1,1-1ZM3.77,18.1h2.5V15.6H3.77Z"/><path class="cls-2" d="M2.75,22.5c0-.42,0-.83,0-1.25a1,1,0,0,1,1-1H6.29a1,1,0,0,1,1,1q0,1.31,0,2.63a.91.91,0,0,1-.93,1c-.9,0-1.8,0-2.69,0a.94.94,0,0,1-.93-1c0-.43,0-.85,0-1.28ZM6.3,21.27H3.78v2.52H6.11a.25.25,0,0,0,.18-.17C6.3,22.84,6.3,22.06,6.3,21.27Z"/><path class="cls-2" d="M4.65,10.4l1.1-1.13A1.61,1.61,0,0,1,6,9a.46.46,0,0,1,.62.06.43.43,0,0,1,0,.64q-.85.89-1.74,1.74a.46.46,0,0,1-.67-.05c-.29-.28-.58-.56-.86-.86a.49.49,0,0,1,0-.75.5.5,0,0,1,.72,0C4.31,10,4.46,10.19,4.65,10.4Z"/><path class="cls-2" d="M4.63,5.7l1-1.07a3.22,3.22,0,0,1,.27-.26.5.5,0,0,1,.7,0,.47.47,0,0,1,0,.72c-.39.42-.8.81-1.21,1.22-.76.76-.78.76-1.54,0l-.43-.43a.51.51,0,1,1,.7-.72C4.32,5.31,4.45,5.49,4.63,5.7Z"/></g></g></svg>