<?xml version="1.0" encoding="utf-8"?>
<!-- Generator: Adobe Illustrator 21.1.0, SVG Export Plug-In . SVG Version: 6.00 Build 0)  -->
<svg version="1.1" id="Layer_1" xmlns="http://www.w3.org/2000/svg" xmlns:xlink="http://www.w3.org/1999/xlink" x="0px" y="0px"
	 viewBox="0 0 36 36" style="enable-background:new 0 0 36 36;" xml:space="preserve">
<style type="text/css">
	.st0{fill:#FF3C30;}
	.st1{fill:#FFFFFF;}
</style>
<g>
	<path class="st0" d="M30.4,5C23.2-1.9,11.8-1.6,5,5.6S-1.6,24.2,5.6,31s18.6,6.6,25.4-0.6S37.6,11.8,30.4,5z"/>
	<g>
		<path class="st1" d="M18,9.1c-1.1,0-2,0.6-2,1.5v8.7c0,1,0.9,1.5,2,1.5c1.1,0,2-0.6,2-1.5v-8.7C20,9.7,19.1,9.1,18,9.1L18,9.1z"/>
		<path class="st1" d="M18,22.9c-1.1,0-2,0.9-2,2c0,1.1,0.9,2,2,2c1.1,0,2-0.9,2-2C20,23.8,19.1,22.9,18,22.9L18,22.9z"/>
	</g>
	<path class="st1" d="M18,18"/>
</g>
</svg>
