<?xml version="1.0" encoding="utf-8"?>
<!-- Generator: Adobe Illustrator 21.1.0, SVG Export Plug-In . SVG Version: 6.00 Build 0)  -->
<svg version="1.1" id="Layer_1" xmlns="http://www.w3.org/2000/svg" xmlns:xlink="http://www.w3.org/1999/xlink" x="0px" y="0px"
	 viewBox="0 0 36 36" style="enable-background:new 0 0 36 36;" xml:space="preserve">
<style type="text/css">
	.st0{fill:#FFFFFF;}
	.st1{fill:#F40058;}
</style>
<g>
	<path class="st0" d="M29,37H7c-3.9,0-7-3.2-7-7V11.2c0-3.9,3.2-7,7-7c0.4,0,0.8,0.4,0.8,0.8c0,0.4-0.3,0.7-0.8,0.7
		c-3,0-5.5,2.5-5.5,5.5V30c0,3,2.5,5.5,5.5,5.5h22c3,0,5.5-2.5,5.5-5.5V11.2c0-3-2.5-5.5-5.5-5.5c-0.4,0-0.8-0.4-0.8-0.8
		c0-0.4,0.4-0.8,0.8-0.8c3.9,0,7,3.2,7,7V30C36,33.8,32.8,37,29,37z"/>
	<path class="st0" d="M22.7,5.7h-9.4c-0.4,0-0.8-0.4-0.8-0.8c0-0.4,0.4-0.8,0.8-0.8h9.4c0.4,0,0.8,0.4,0.8,0.8
		C23.5,5.3,23.1,5.7,22.7,5.7z"/>
	<path class="st0" d="M35.2,13.5H0.8c-0.4,0-0.8-0.4-0.8-0.8C0,12.3,0.4,12,0.8,12h34.4c0.4,0,0.8,0.4,0.8,0.8
		C36,13.2,35.6,13.5,35.2,13.5z"/>
	<path class="st0" d="M10.2,8.8C9.7,8.8,9.4,8.5,9.4,8V1.8C9.4,1.4,9.7,1,10.2,1S11,1.4,11,1.8V8C11,8.5,10.6,8.8,10.2,8.8z"/>
	<path class="st0" d="M25.8,8.8C25.4,8.8,25,8.5,25,8V1.8C25,1.4,25.4,1,25.8,1s0.8,0.4,0.8,0.8V8C26.6,8.5,26.3,8.8,25.8,8.8z"/>
	<path class="st1" d="M13.1,28.5c0.1-0.7,0.2-1.6,0.4-2.5c0.1-0.4,0-0.7-0.3-1c-0.7-0.6-1.3-1.2-1.9-1.9c-0.7-0.8-0.4-2,0.7-2.3
		c1-0.2,1.9-0.3,2.9-0.5c0.2,0,0.3-0.1,0.4-0.3c0.4-0.9,0.8-1.8,1.3-2.6c0.6-1,1.8-1,2.4,0c0.5,0.8,0.9,1.7,1.3,2.6
		c0.1,0.2,0.2,0.2,0.4,0.3c1,0.1,2,0.3,2.9,0.5c1.1,0.2,1.5,1.4,0.7,2.3c-0.7,0.7-1.4,1.4-2.1,2.1C22,25.3,22,25.5,22,25.7
		c0.2,0.9,0.3,1.7,0.4,2.6c0.1,0.4,0.1,0.8-0.1,1.2c-0.3,0.6-1.1,0.9-1.7,0.6c-0.8-0.3-1.5-0.7-2.3-1.2c-0.5-0.3-0.8-0.3-1.3,0
		c-0.6,0.4-1.2,0.7-1.9,1c-0.3,0.1-0.6,0.3-1,0.3C13.6,30.2,13,29.6,13.1,28.5z M20.7,28c-0.2-0.9-0.3-1.7-0.4-2.5
		c-0.1-0.4,0-0.8,0.3-1.1c0.5-0.5,1.1-1,1.6-1.6c0.1-0.1,0.1-0.1,0.2-0.2c-0.9-0.1-1.7-0.3-2.5-0.4c-0.5-0.1-0.8-0.3-1-0.7
		c-0.2-0.5-0.5-0.9-0.7-1.4c-0.1-0.3-0.3-0.5-0.4-0.9c-0.1,0.1-0.1,0.2-0.1,0.2c-0.3,0.7-0.7,1.4-1,2.1c-0.2,0.4-0.4,0.6-0.8,0.6
		c-0.3,0-0.6,0.1-0.9,0.1c-0.6,0.1-1.1,0.2-1.6,0.2c0.6,0.6,1.1,1.2,1.7,1.8c0.3,0.3,0.4,0.7,0.4,1.1c-0.2,0.8-0.3,1.6-0.4,2.5
		c0.1-0.1,0.2-0.1,0.3-0.1c0.6-0.3,1.2-0.6,1.8-1c0.5-0.3,1-0.3,1.5,0C19.3,27.3,20,27.6,20.7,28z"/>
</g>
</svg>
