<?xml version="1.0" encoding="utf-8"?>
<!-- Generator: Adobe Illustrator 21.1.0, SVG Export Plug-In . SVG Version: 6.00 Build 0)  -->
<svg version="1.1" id="Layer_1" xmlns="http://www.w3.org/2000/svg" xmlns:xlink="http://www.w3.org/1999/xlink" x="0px" y="0px"
	 viewBox="0 0 36 36" style="enable-background:new 0 0 36 36;" xml:space="preserve">
<style type="text/css">
	.st0{fill:#131C2F;}
	.st1{fill:#EE045A;}
</style>
<path class="st0" d="M15.6,12.8c0.3,0,0.6,0.3,0.6,0.6h1.2c0-1-0.8-1.8-1.8-1.8s-1.8,0.8-1.8,1.8H15C15,13.1,15.2,12.8,15.6,12.8z"
	/>
<path class="st0" d="M20.4,12.8c0.3,0,0.6,0.3,0.6,0.6h1.2c0-1-0.8-1.8-1.8-1.8s-1.8,0.8-1.8,1.8h1.2C19.8,13.1,20,12.8,20.4,12.8z"
	/>
<path class="st1" d="M18,27.8c-1.3,0-2.4,1.1-2.4,2.4s1.1,2.4,2.4,2.4s2.4-1.1,2.4-2.4S19.3,27.8,18,27.8z M18,31.4
	c-0.7,0-1.2-0.5-1.2-1.2S17.3,29,18,29s1.2,0.5,1.2,1.2S18.6,31.4,18,31.4z"/>
<path class="st0" d="M32.4,27.2c0-5-4-9-9-9h-0.7c0.2-0.2,0.4-0.4,0.6-0.6H24c1.7,0,3-1.3,3-3v-1.1c0.7-0.5,1.2-1.3,1.2-2.2
	S27.7,9.5,27,9.1c-0.1-4.9-4.1-8.9-9-8.9s-9,4-9,8.9c-0.7,0.5-1.2,1.3-1.2,2.2c0,1.5,1.2,2.7,2.7,2.7h0.4c0.3,1.7,1.1,3.1,2.3,4.2
	h-0.7c-5,0-9,4-9,9V35H0v1.2h4.2h3h21.6h3H36V35h-3.6V27.2z M18,20c0.6,0,1.3-0.1,1.9-0.3L18,23.5l-1.9-3.7C16.7,19.9,17.3,20,18,20
	z M22.4,19.4L20,24.2h-1.1l2.4-4.8H22.4z M25.8,14.6c0,0.9-0.7,1.7-1.6,1.8c0.4-0.7,0.7-1.5,0.9-2.4h0.4c0.1,0,0.2,0,0.3,0
	C25.8,14,25.8,14.6,25.8,14.6z M25.5,12.8h-0.3v-3h0.3c0.8,0,1.5,0.7,1.5,1.5C27,12.1,26.3,12.8,25.5,12.8z M18,1.4
	c4.1,0,7.5,3.2,7.8,7.2c-0.1,0-0.2,0-0.3,0H25c-0.6-3.4-3.5-6-7.1-6s-6.5,2.6-7.1,6h-0.4c-0.1,0-0.2,0-0.3,0
	C10.5,4.6,13.8,1.4,18,1.4z M24,9.8c-4.3-0.2-7.2-1.9-7.2-3.6c0-0.3-0.3-0.6-0.6-0.6c-0.3,0-0.6,0.3-0.6,0.6c0,1.5-1.6,2.7-3.6,3
	c0.3-3,2.9-5.4,6-5.4C21.3,3.8,23.9,6.5,24,9.8z M10.5,12.8c-0.8,0-1.5-0.7-1.5-1.5s0.7-1.5,1.5-1.5h0.3v3H10.5z M12,12.8v-2.4
	c1.9-0.2,3.5-1.1,4.3-2.3c1.3,1.7,4.2,2.8,7.7,3v1.8c0,1.4-0.5,2.6-1.2,3.6H18v1.2h3.6c-0.3,0.3-0.7,0.5-1.1,0.7
	c-1.6,0.7-3.4,0.7-4.9,0C13.4,17.3,12,15.2,12,12.8z M17,24.2h-1.1l-2.4-4.8h1.1L17,24.2z M4.8,27.2c0-4.2,3.3-7.6,7.4-7.8l2.4,4.8
	h-5c-1.7,0-3,1.3-3,3V35H4.8V27.2z M7.8,35v-7.8c0-1,0.8-1.8,1.8-1.8h6H18h2.4h6c1,0,1.8,0.8,1.8,1.8V35H7.8z M29.4,35v-7.8
	c0-1.7-1.3-3-3-3h-5l2.4-4.8c4.1,0.2,7.4,3.6,7.4,7.8V35H29.4z"/>
<rect x="25.8" y="29.6" class="st0" width="1.2" height="4.2"/>
<rect x="25.8" y="27.2" class="st0" width="1.2" height="1.2"/>
</svg>
