<?xml version="1.0" encoding="utf-8"?>
<!-- Generator: Adobe Illustrator 21.1.0, SVG Export Plug-In . SVG Version: 6.00 Build 0)  -->
<svg version="1.1" id="Layer_1" xmlns="http://www.w3.org/2000/svg" xmlns:xlink="http://www.w3.org/1999/xlink" x="0px" y="0px"
	 viewBox="0 0 36 36" style="enable-background:new 0 0 36 36;" xml:space="preserve">
<style type="text/css">
	.st0{fill:#131C2F;}
	.st1{fill:#EA135C;}
</style>
<g>
	<path class="st0" d="M31.6,4H4.4C2,4,0,6,0,8.4V27c0,2.4,2,4.4,4.4,4.4h27.2c2.4,0,4.4-2,4.4-4.4V8.4C36,6,34,4,31.6,4L31.6,4z
		 M34,27c0,1.3-1.1,2.4-2.4,2.4H4.4C3.1,29.4,2,28.3,2,27V8.4C2,7.1,3.1,6,4.4,6h27.2C32.9,6,34,7.1,34,8.4L34,27L34,27z M34,27"/>
	<path class="st1" d="M22.7,17.5l8.8-7.9c0.4-0.4,0.4-1,0.1-1.4c-0.4-0.4-1-0.4-1.4-0.1L18,19l-2.4-2.1c0,0,0,0,0,0
		c-0.1-0.1-0.1-0.1-0.2-0.1L5.8,8.1C5.4,7.7,4.8,7.7,4.4,8.1C4,8.6,4.1,9.2,4.5,9.6l8.9,8l-8.9,8.3c-0.4,0.4-0.4,1,0,1.4
		c0.2,0.2,0.5,0.3,0.7,0.3c0.2,0,0.5-0.1,0.7-0.3l9-8.4l2.4,2.2c0.2,0.2,0.4,0.3,0.7,0.3c0.2,0,0.5-0.1,0.7-0.3l2.5-2.2l9,8.5
		c0.2,0.2,0.4,0.3,0.7,0.3c0.3,0,0.5-0.1,0.7-0.3c0.4-0.4,0.4-1,0-1.4L22.7,17.5z M22.7,17.5"/>
</g>
</svg>
