<?xml version="1.0" encoding="utf-8"?>
<!-- Generator: Adobe Illustrator 21.1.0, SVG Export Plug-In . SVG Version: 6.00 Build 0)  -->
<svg version="1.1" id="Layer_1" xmlns="http://www.w3.org/2000/svg" xmlns:xlink="http://www.w3.org/1999/xlink" x="0px" y="0px"
	 viewBox="0 0 36 36" style="enable-background:new 0 0 36 36;" xml:space="preserve">
<style type="text/css">
	.st0{fill:#FFFFFF;}
	.st1{fill:#EA135C;}
</style>
<path class="st0" d="M5.4,23.2c-2.5,0-4.7-1.8-5.2-4.2C0,18.6,0,18.2,0,17.9c0-0.5,0.1-1,0.2-1.5c0.7-2.3,2.8-3.9,5.2-3.9
	c2.4,0,4.5,1.6,5.2,3.9c0.1,0.5,0.2,1,0.2,1.5c0,0.4,0,0.8-0.1,1.2C10.1,21.5,7.9,23.2,5.4,23.2z"/>
<path class="st1" d="M17.9,23.2c-2.5,0-4.7-1.8-5.2-4.2c-0.1-0.4-0.1-0.8-0.1-1.2c0-0.5,0.1-1,0.2-1.5c0.7-2.3,2.8-3.9,5.2-3.9
	c2.4,0,4.5,1.6,5.2,3.9c0.1,0.5,0.2,1,0.2,1.5c0,0.4,0,0.8-0.1,1.2C22.6,21.5,20.4,23.2,17.9,23.2z"/>
<path class="st0" d="M30.4,23.2c-2.5,0-4.7-1.8-5.2-4.2c-0.1-0.4-0.1-0.8-0.1-1.2c0-0.5,0.1-1,0.2-1.5c0.7-2.3,2.8-3.9,5.2-3.9
	c2.4,0,4.5,1.6,5.2,3.9c0.1,0.5,0.2,1,0.2,1.5c0,0.4,0,0.8-0.1,1.2C35.1,21.5,32.9,23.2,30.4,23.2z"/>
</svg>
