<?xml version="1.0" encoding="utf-8"?>
<!-- Generator: Adobe Illustrator 21.1.0, SVG Export Plug-In . SVG Version: 6.00 Build 0)  -->
<svg version="1.1" id="Layer_1" xmlns="http://www.w3.org/2000/svg" xmlns:xlink="http://www.w3.org/1999/xlink" x="0px" y="0px"
	 viewBox="0 0 36 36" style="enable-background:new 0 0 36 36;" xml:space="preserve">
<style type="text/css">
	.st0{fill:#131C2F;}
	.st1{fill:#F40058;}
</style>
<g>
	<path class="st0" d="M0,15.2c0-0.2,0-0.5,0-0.7c0-0.1,0.1-0.1,0.1-0.2c0.2-0.9,0.4-1.8,0.5-2.8c0.1-0.8,0.4-1.5,1-2.2
		c1.1-1.3,2.2-2.6,3.3-4C5,5.3,5.1,5,5.1,4.9c0-1.3,0-2.6,0-4c0-0.4,0.1-0.6,0.4-0.8c8.2,0,16.4,0,24.6,0c0.3,0.2,0.4,0.4,0.4,0.8
		c0,1.3,0,2.6,0,3.9c0,0.3,0.1,0.4,0.2,0.6c1.3,1.5,2.6,3,3.8,4.6c0.2,0.2,0.3,0.4,0.3,0.7c0.1,0.6,0.2,1.1,0.3,1.7
		c0.1,0.7,0.3,1.4,0.4,2.1c0,0.2,0,0.5,0,0.7c0,0.1,0,0.2-0.1,0.3c-0.3,1.3-1,2.3-2.2,2.8c-0.3,0.1-0.4,0.3-0.4,0.6
		c0,5.4,0,10.7,0,16.1c0,0.4-0.1,0.7-0.4,0.9c-8.1,0-16.2,0-24.4,0C8,35.6,7.8,35.4,7.9,35c0.1-0.3,0.4-0.4,0.8-0.4
		c0.1,0,0.1,0,0.2,0c3.8,0,7.6,0,11.4,0c0.1,0,0.3,0,0.4,0c0-0.2,0-0.3,0-0.4c0-4.1,0-8.1,0-12.2c0-0.7,0.2-0.8,0.8-0.8
		c2.5,0,4.9,0,7.4,0c0.8,0,0.9,0.1,0.9,0.9c0,4,0,8.1,0,12.1c0,0.1,0,0.3,0,0.4c0.7,0,1.4,0,2,0c0-5.4,0-10.7,0-16
		c-1.6,0.1-2.8-0.5-3.6-1.8c-0.8,1.2-2,1.8-3.5,1.8c-1.5,0-2.6-0.6-3.4-1.8c-1.5,2.4-5.4,2.4-6.9,0c-0.8,1.2-2,1.8-3.4,1.8
		c-1.5,0-2.6-0.6-3.5-1.8c-0.9,1.3-2.1,1.9-3.6,1.8c0,5.4,0,10.7,0,16.1c0.9,0,1.7,0,2.6,0c0.3,0,0.6,0.1,0.7,0.4
		c0.1,0.3-0.1,0.5-0.4,0.7c-1.2,0-2.5,0-3.7,0c-0.3-0.2-0.4-0.4-0.4-0.8c0-0.8,0-1.6,0-2.4c0-4.6,0-9.2,0-13.9
		c0-0.3-0.1-0.4-0.3-0.5c-0.5-0.3-1-0.6-1.4-1C0.4,16.7,0.2,15.9,0,15.2z M21.9,34.6c2.3,0,4.6,0,6.8,0c0-3.1,0-6.2,0-9.3
		c-2.3,0-4.5,0-6.8,0C21.9,28.5,21.9,31.5,21.9,34.6z M6.2,4.7c7.8,0,15.5,0,23.2,0c0-1.2,0-2.3,0-3.4c-7.7,0-15.5,0-23.2,0
		C6.2,2.4,6.2,3.6,6.2,4.7z M28.3,11.1c0.2,1.4,0.3,2.8,0.5,4.1c0.1,0.4,0.3,0.8,0.5,1.1c0.8,1,1.9,1.2,3,1c1.4-0.3,2.4-1.7,2.1-3
		c-0.1-0.3-0.1-0.7-0.2-1.1c-0.1-0.7-0.3-1.4-0.4-2.1C32,11.1,30.2,11.1,28.3,11.1z M7.4,11.1c-1.8,0-3.6,0-5.4,0
		c-0.1,0-0.2,0.2-0.2,0.3c-0.1,0.7-0.3,1.5-0.4,2.2c-0.1,0.4-0.2,0.9-0.2,1.3c0.1,1.5,1.1,2.4,2.6,2.5C5,17.5,6,17.1,6.6,16
		c0.2-0.4,0.3-0.9,0.3-1.4C7.1,13.4,7.2,12.3,7.4,11.1z M8.5,11.1c-0.1,0.8-0.2,1.5-0.3,2.2c-0.1,0.5-0.2,1-0.1,1.6
		c0.1,1.4,1,2.4,2.5,2.5c1.8,0.2,3.1-0.9,3.3-2.7c0.1-1.1,0.1-2.2,0.2-3.3c0-0.1,0-0.2,0-0.4C12.1,11.1,10.3,11.1,8.5,11.1z
		 M21.7,11.1c0,0.2,0,0.3,0,0.4c0.1,1.1,0.1,2.1,0.2,3.2c0.1,1.5,1.1,2.5,2.6,2.7c1.5,0.1,2.7-0.6,3.1-2c0.1-0.5,0-1,0-1.5
		c-0.1-0.9-0.2-1.9-0.3-2.8C25.3,11.1,23.5,11.1,21.7,11.1z M20.5,11.2c-1.8,0-3.6,0-5.4,0c0,0.1,0,0.2,0,0.3
		c-0.1,1-0.1,2.1-0.2,3.1c-0.1,1.6,1,2.8,2.6,3c1.3,0.1,2.3-0.4,2.8-1.5c0.1-0.3,0.3-0.6,0.3-0.9C20.7,13.7,20.6,12.5,20.5,11.2z
		 M15.9,5.9c-0.2,1.4-0.4,2.8-0.6,4.1c1.7,0,3.4,0,5.1,0c-0.2-1.4-0.4-2.8-0.6-4.1C18.5,5.9,17.2,5.9,15.9,5.9z M26.7,10
		c-0.5-1-1-2-1.5-3c-0.2-0.4-0.3-0.9-0.6-1c-0.3-0.2-0.8-0.1-1.2-0.1c-0.8,0-1.7,0-2.6,0c0.2,1.4,0.4,2.8,0.6,4.2
		C23.3,10,25,10,26.7,10z M14.7,5.8c-1.2,0-2.4,0-3.5,0c-0.2,0-0.3,0.1-0.4,0.3C10.2,7.3,9.6,8.5,9,9.7C9,9.8,9,9.9,8.9,10
		c1.7,0,3.5,0,5.2,0C14.3,8.6,14.5,7.3,14.7,5.8z M26,5.8C26,5.9,26,5.9,26,5.8c0.6,1.4,1.3,2.7,1.9,4c0,0.1,0.2,0.2,0.3,0.2
		c1.6,0,3.2,0,4.7,0c0,0,0.1,0,0.1,0c0,0,0-0.1,0-0.1c-1.1-1.3-2.2-2.6-3.3-3.9c-0.1-0.1-0.2-0.1-0.3-0.1C28.3,5.8,27.2,5.8,26,5.8z
		 M9.7,5.8c-1.2,0-2.3,0-3.4,0c-0.2,0-0.4,0.1-0.5,0.2c-1,1.2-2.1,2.5-3.1,3.7c0,0.1-0.1,0.1-0.1,0.2c1.7,0,3.3,0,4.9,0
		c0.1,0,0.2-0.1,0.2-0.1C8.4,8.5,9,7.2,9.7,5.8z M21.9,24.2c2.3,0,4.6,0,6.8,0c0-0.6,0-1.2,0-1.8c-2.3,0-4.5,0-6.8,0
		C21.9,23,21.9,23.6,21.9,24.2z"/>
	<path class="st1" d="M12.4,29.4c-1.8,0-3.7,0-5.5,0c-0.7,0-0.8-0.2-0.8-0.8c0-2.2,0-4.4,0-6.6c0-0.6,0.2-0.8,0.8-0.8
		c3.7,0,7.5,0,11.2,0c0.6,0,0.8,0.2,0.8,0.8c0,2.2,0,4.5,0,6.7c0,0.6-0.2,0.8-0.8,0.8C16.2,29.4,14.3,29.4,12.4,29.4
		C12.4,29.4,12.4,29.4,12.4,29.4z M7.2,28.3c3.5,0,7,0,10.5,0c0-2,0-4,0-5.9c-3.5,0-7,0-10.5,0C7.2,24.3,7.2,26.3,7.2,28.3z"/>
	<path class="st0" d="M17.9,2.4c3.2,0,6.3,0,9.5,0c0.1,0,0.3,0,0.4,0c0.3,0,0.5,0.2,0.5,0.5c0,0.3-0.2,0.5-0.5,0.6
		c-0.1,0-0.2,0-0.3,0c-6.4,0-12.8,0-19.1,0c-0.1,0-0.2,0-0.3,0C7.7,3.5,7.5,3.3,7.5,3c0-0.3,0.2-0.5,0.5-0.5c0.1,0,0.3,0,0.4,0
		C11.5,2.4,14.7,2.4,17.9,2.4z"/>
</g>
</svg>
