<svg xmlns="http://www.w3.org/2000/svg" viewBox="0 0 33.3 37"><defs><style>.cls-1{fill:#ea135c;}.cls-2{fill:#131c2f;}</style></defs><title>notification_bell</title><g id="Layer_2" data-name="Layer 2"><g id="Layer_1-2" data-name="Layer 1"><path class="cls-1" d="M16.65,36.07a4.71,4.71,0,0,0,4.71-4.71H11.94A4.71,4.71,0,0,0,16.65,36.07Z"/><path class="cls-1" d="M16.65,5.55a2.31,2.31,0,1,0-2.31-2.31A2.32,2.32,0,0,0,16.65,5.55Z"/><path class="cls-2" d="M32.77,27.25l0-.07a2.32,2.32,0,0,0-.85-.9c-2.5-1.44-4-5.36-4.49-11.65a10.88,10.88,0,0,0-8-9.64,3.24,3.24,0,1,0-5.45,0,10.88,10.88,0,0,0-8,9.64c-.48,6.29-2,10.21-4.49,11.65A3.28,3.28,0,0,0,.06,28.84C0,29.66-.08,31.37.56,32a.92.92,0,0,0,.65.27h9.87a5.64,5.64,0,0,0,11.12,0h9.87a.92.92,0,0,0,.65-.27c.65-.64.61-2.36.5-3.18A4.74,4.74,0,0,0,32.77,27.25ZM16.65,1.85a1.39,1.39,0,1,1-1.39,1.39A1.39,1.39,0,0,1,16.65,1.85Zm0,33.3A3.79,3.79,0,0,1,13,32.29h7.34A3.79,3.79,0,0,1,16.65,35.15Zm14.76-4.71H1.89a5.47,5.47,0,0,1,0-1.23c.09-.83.33-1.24.46-1.32,3.1-1.79,4.87-6.08,5.41-13.11a8.92,8.92,0,0,1,17.79,0A29.08,29.08,0,0,0,27.19,23H23.71a.92.92,0,0,0,0,1.85h4.36a9.09,9.09,0,0,0,1.4,1.85H23.26a.92.92,0,0,0,0,1.85h8.05a4.3,4.3,0,0,1,.11.62A5.47,5.47,0,0,1,31.41,30.44Z"/><path class="cls-2" d="M19.93,26.74h-.55a.92.92,0,0,0,0,1.85h.55a.92.92,0,0,0,0-1.85Z"/></g></g></svg>