<?xml version="1.0" encoding="utf-8"?>
<!-- Generator: Adobe Illustrator 21.1.0, SVG Export Plug-In . SVG Version: 6.00 Build 0)  -->
<svg version="1.1" id="Layer_1" xmlns="http://www.w3.org/2000/svg" xmlns:xlink="http://www.w3.org/1999/xlink" x="0px" y="0px"
	 viewBox="0 0 36 36" style="enable-background:new 0 0 36 36;" xml:space="preserve">
<style type="text/css">
	.st0{fill:#131C2F;}
	.st1{fill:#F40058;}
</style>
<g>
	<path class="st0" d="M8,33.4c0-1.2,0-2.4,0-3.5c-0.1,0-0.3,0-0.4,0c-2.2,0-4.5,0-6.7,0c-0.7,0-0.9-0.3-0.9-0.9
		c0.1-4.5,1.6-8.4,4.5-11.8c2.8-3.2,6.3-5.1,10.5-5.8c0.7-0.1,1.4-0.2,2.2-0.3c0-0.7,0-1.4,0-2.1c-0.1,0-0.3,0-0.4,0
		c-0.8,0-1.6,0-2.4,0c-0.6,0-0.9-0.3-0.9-0.8c0-0.5,0.3-0.7,0.9-0.7c2.4,0,4.7,0,7.1,0c0.7,0,1,0.5,0.8,1.1
		c-0.1,0.4-0.4,0.5-0.8,0.5c-0.8,0-1.6,0-2.3,0c-0.1,0-0.3,0-0.4,0c0,0.7,0,1.4,0,2.1c0.9,0.1,1.7,0.2,2.5,0.4
		c3.1,0.6,5.9,1.9,8.3,3.9c3.2,2.7,5.2,6.1,6,10.1c0.2,1.2,0.3,2.3,0.4,3.5c0,0.6-0.3,0.9-0.9,0.9c-2.2,0-4.5,0-6.7,0
		c-0.1,0-0.3,0-0.4,0c0,1.2,0,2.3,0,3.5c0.1,0,0.3,0,0.4,0c2.3,0,4.5,0,6.8,0c0.5,0,0.7,0.2,0.8,0.5c0.2,0.6-0.2,1-0.8,1
		c-2.3,0-4.6,0-7,0c-9,0-18,0-27,0c-0.1,0-0.2,0-0.3,0c-0.6,0-0.9-0.3-0.9-0.8c0-0.5,0.3-0.7,0.9-0.7c2.1,0,4.2,0,6.4,0
		C7.5,33.4,7.7,33.4,8,33.4z M1.5,28.3c11,0,22,0,33,0c-0.4-5.6-2.9-10.1-7.6-13c-5.7-3.6-11.6-3.7-17.4-0.2C4.5,18,2,22.5,1.5,28.3
		z M26.4,29.9c-5.6,0-11.2,0-16.8,0c0,1.2,0,2.3,0,3.5c5.6,0,11.2,0,16.8,0C26.4,32.2,26.4,31.1,26.4,29.9z"/>
	<path class="st1" d="M18.8,1.8c0,0.3,0,0.7,0,1c0,0.2,0,0.4-0.1,0.6c-0.1,0.3-0.5,0.5-0.8,0.4c-0.3-0.1-0.6-0.3-0.6-0.7
		c0-0.8,0-1.6,0-2.4C17.3,0.2,17.6,0,18,0c0.4,0,0.7,0.2,0.7,0.7c0,0.2,0,0.4,0,0.6C18.8,1.5,18.8,1.7,18.8,1.8z"/>
	<path class="st1" d="M13.9,5.2c-0.3,0-0.6-0.1-0.8-0.4c-0.4-0.6-0.7-1.2-1.1-1.8c-0.2-0.4-0.1-0.8,0.2-1c0.3-0.2,0.8-0.2,1.1,0.2
		c0.4,0.7,0.8,1.3,1.2,2C14.8,4.5,14.6,5.2,13.9,5.2z"/>
	<path class="st1" d="M22.1,5.2c-0.5-0.1-0.9-0.5-0.7-0.9c0.4-0.8,0.8-1.5,1.3-2.3c0.2-0.3,0.6-0.3,1-0.1c0.3,0.2,0.5,0.6,0.3,1
		c-0.4,0.7-0.8,1.3-1.2,2C22.7,5.1,22.4,5.1,22.1,5.2z"/>
</g>
</svg>
