<svg xmlns="http://www.w3.org/2000/svg" viewBox="0 0 42.9 42.03"><defs><style>.cls-1{fill:#131c2f;}.cls-2{fill:#ea135c;}</style></defs><title>service_location</title><g id="Layer_2" data-name="Layer 2"><g id="Layer_1-2" data-name="Layer 1"><path d="M22,18.21h0"/><path class="cls-1" d="M21.84,38.35,32.58,22.83c4-5.37,3.45-14.2-1.25-18.9a13.43,13.43,0,0,0-19,0c-4.7,4.7-5.28,13.53-1.26,18.88ZM13.33,4.93a12,12,0,0,1,17,0C34.58,9.16,35.1,17.14,31.45,22L21.84,35.89,12.21,22C8.57,17.14,9.09,9.16,13.33,4.93Zm0,0"/><path class="cls-1" d="M.7,40.34l-.5.49a.7.7,0,0,0,1,1l.5-.5a.7.7,0,0,0-1-1Zm0,0"/><path class="cls-1" d="M6,36.43a.7.7,0,1,0,0,1.4H7.31a.7.7,0,0,0,0-1.4Zm0,0"/><path class="cls-1" d="M4.4,37.63a.7.7,0,0,0-1,0l-.9.9a.7.7,0,0,0,1,1l.9-.9a.7.7,0,0,0,0-1Zm0,0"/><path class="cls-1" d="M13.69,36.43a.7.7,0,1,0,0,1.4H15a.7.7,0,0,0,0-1.4Zm0,0"/><path class="cls-1" d="M9.86,36.43a.7.7,0,1,0,0,1.4h1.28a.7.7,0,1,0,0-1.4Zm0,0"/><path class="cls-1" d="M17.51,36.43a.7.7,0,1,0,0,1.4h.7a.7.7,0,1,0,0-1.4Zm0,0"/><path class="cls-1" d="M.7,37.66a.7.7,0,0,0,.5-.21l2.72-2.72a1.13,1.13,0,0,1,.24-.19l.14-.07.07,0,.26-.08.28,0H15.41a.7.7,0,1,0,0-1.4H4.9a2.84,2.84,0,0,0-.55.05l-.2.06-.09,0-.23.08-.24.12-.06,0-.18.1a2.78,2.78,0,0,0-.43.35L.2,36.46a.7.7,0,0,0,.5,1.2Zm0,0"/><path class="cls-1" d="M40.83,34.12a.69.69,0,0,0,.49-.21l.5-.5a.7.7,0,0,0-1-1l-.5.5a.7.7,0,0,0,.5,1.19Zm0,0"/><path class="cls-1" d="M38.22,35l-1.06,1.06a.7.7,0,1,0,1,1L39.21,36a.7.7,0,0,0-1-1Zm0,0"/><path class="cls-1" d="M33.39,36.43a.7.7,0,1,0,0,1.4h1.49a.7.7,0,1,0,0-1.4Zm0,0"/><path class="cls-1" d="M28.91,36.43a.7.7,0,0,0,0,1.4h1.5a.7.7,0,0,0,0-1.4Zm0,0"/><path class="cls-1" d="M26.09,36.43a.7.7,0,1,0,0,1.4h.7a.7.7,0,1,0,0-1.4Zm0,0"/><path class="cls-1" d="M41.71,36.8,39,39.51a1.24,1.24,0,0,1-.24.19l-.13.07-.08,0-.07,0-.2.06a1.19,1.19,0,0,1-.27,0H6.4l-1.06.85A.7.7,0,0,0,5.78,42a.71.71,0,0,0,.44-.15l.68-.55H38a2.64,2.64,0,0,0,.54-.05l.21-.06.08,0,.24-.08.24-.12.07,0,.17-.1a3,3,0,0,0,.43-.35l2.72-2.72a.7.7,0,1,0-1-1Zm0,0"/><path class="cls-1" d="M27.32,33.62a.7.7,0,0,0,.7.7h8.53L38.85,32a.7.7,0,0,0-1-1L36,32.92H28a.7.7,0,0,0-.7.7Zm0,0"/><circle class="cls-2" cx="21.76" cy="13.38" r="5.11"/></g></g></svg>