<?xml version="1.0" encoding="UTF-8"?><!DOCTYPE svg PUBLIC "-//W3C//DTD SVG 1.1//EN" "http://www.w3.org/Graphics/SVG/1.1/DTD/svg11.dtd"><svg xmlns="http://www.w3.org/2000/svg"><symbol id="icon-arrow-right" viewBox="0 0 284.935 284.936">
    <path d="M110.488 142.468L222.694 30.264c1.902-1.903 2.854-4.093 2.854-6.567s-.951-4.664-2.854-6.563L208.417 2.857C206.513.955 204.324 0 201.856 0c-2.475 0-4.664.955-6.567 2.857L62.24 135.9c-1.903 1.903-2.852 4.093-2.852 6.567 0 2.475.949 4.664 2.852 6.567l133.042 133.043c1.906 1.906 4.097 2.857 6.571 2.857 2.471 0 4.66-.951 6.563-2.857l14.277-14.267c1.902-1.903 2.851-4.094 2.851-6.57 0-2.472-.948-4.661-2.851-6.564L110.488 142.468z"/>
</symbol><symbol id="icon-eye" viewBox="0 0 488.85 488.85">
    <path d="M244.425 98.725c-93.4 0-178.1 51.1-240.6 134.1-5.1 6.8-5.1 16.3 0 23.1 62.5 83.1 147.2 134.2 240.6 134.2s178.1-51.1 240.6-134.1c5.1-6.8 5.1-16.3 0-23.1-62.5-83.1-147.2-134.2-240.6-134.2zm6.7 248.3c-62 3.9-113.2-47.2-109.3-109.3 3.2-51.2 44.7-92.7 95.9-95.9 62-3.9 113.2 47.2 109.3 109.3-3.3 51.1-44.8 92.6-95.9 95.9zm-3.1-47.4c-33.4 2.1-61-25.4-58.8-58.8 1.7-27.6 24.1-49.9 51.7-51.7 33.4-2.1 61 25.4 58.8 58.8-1.8 27.7-24.2 50-51.7 51.7z"/>
</symbol><symbol id="icon-rupee-indian" viewBox="0 0 401.998 401.998">
    <path d="M326.62 91.076c-1.711-1.713-3.901-2.568-6.563-2.568h-48.82c-3.238-15.793-9.329-29.502-18.274-41.112h66.52c2.669 0 4.853-.856 6.57-2.565 1.704-1.712 2.56-3.903 2.56-6.567V9.136c0-2.666-.855-4.853-2.56-6.567C324.334.859 322.15 0 319.481 0H81.941c-2.666 0-4.853.859-6.567 2.568-1.709 1.714-2.568 3.901-2.568 6.567v37.972c0 2.474.904 4.615 2.712 6.423s3.949 2.712 6.423 2.712h41.399c40.159 0 65.665 10.751 76.513 32.261H81.941c-2.666 0-4.856.855-6.567 2.568-1.709 1.715-2.568 3.901-2.568 6.567v29.124c0 2.664.855 4.854 2.568 6.563 1.714 1.715 3.905 2.568 6.567 2.568h121.915c-4.188 15.612-13.944 27.506-29.268 35.691-15.325 8.186-35.544 12.279-60.67 12.279H81.941c-2.474 0-4.615.905-6.423 2.712-1.809 1.809-2.712 3.951-2.712 6.423v36.263c0 2.478.855 4.571 2.568 6.282 36.543 38.828 83.939 93.165 142.182 163.025 1.715 2.286 4.093 3.426 7.139 3.426h55.672c4.001 0 6.763-1.708 8.281-5.141 1.903-3.426 1.53-6.662-1.143-9.708-55.572-68.143-99.258-119.153-131.045-153.032 32.358-3.806 58.625-14.277 78.802-31.404 20.174-17.129 32.449-39.403 36.83-66.811h47.965c2.662 0 4.853-.854 6.563-2.568 1.715-1.709 2.573-3.899 2.573-6.563V97.646c0-2.669-.858-4.856-2.573-6.57z"/>
</symbol><symbol id="icon-search" viewBox="0 0 612.08 612.08">
    <path d="M237.927 0C106.555 0 .035 106.52.035 237.893s106.52 237.893 237.893 237.893c50.518 0 97.368-15.757 135.879-42.597l.028-.028 176.432 176.433c3.274 3.274 8.48 3.358 11.839 0l47.551-47.551c3.274-3.274 3.106-8.703-.028-11.838L433.223 373.8c26.84-38.539 42.597-85.39 42.597-135.907C475.82 106.52 369.3 0 237.927 0zm0 419.811c-100.475 0-181.918-81.443-181.918-181.918S137.453 55.975 237.927 55.975s181.918 81.443 181.918 181.918-81.443 181.918-181.918 181.918z"/>
</symbol></svg>